<svg xmlns="http://www.w3.org/2000/svg" viewBox="0 0 640 640" role="img" aria-labelledby="title desc">
  <title id="title">Frontciti mark</title>
  <desc id="desc">A hand-drawn black flag-like C mark on a white background.</desc>
  <rect width="640" height="640" fill="#ffffff"/>
  <g fill="none" stroke="#000000" stroke-width="28" stroke-linecap="square" stroke-linejoin="miter">
    <path d="M108 116 L108 590"/>
    <path d="M110 120 C190 72 330 52 470 72 C514 82 560 104 600 116"/>
    <path d="M268 72 L390 202"/>
    <path d="M100 430 L420 430 C486 416 540 392 612 394"/>
    <path d="M108 120 C108 210 106 292 108 430"/>
    <path d="M260 100 C202 162 184 254 196 334 C206 402 252 432 334 430"/>
    <path d="M396 334 C392 386 374 418 334 430"/>
  </g>
  <path d="M308 244 L344 244 L364 264 L364 324 L344 344 L308 344 L288 324 L288 264 Z" fill="#000000"/>
</svg>
